<!-- Generated by IcoMoon.io -->
<svg version="1.1" xmlns="http://www.w3.org/2000/svg" width="32" height="32" viewBox="0 0 32 32">
<title>telephone</title>
<path fill="#75b73b" d="M29.986 16c0 7.724-6.262 13.986-13.986 13.986s-13.986-6.262-13.986-13.986c0-7.724 6.262-13.986 13.986-13.986s13.986 6.262 13.986 13.986z"></path>
<path fill="#fff" d="M24.218 20.87c-0.009 0.528-0.332 1.366-1.222 1.989-0.67 0.513-1.544 0.773-2.599 0.773-1.099 0-2.338-0.296-3.488-0.835-2.943-1.343-6.674-4.196-8.113-7.049-1.336-2.643-1.352-5.092-0.045-6.554 0.492-0.549 0.962-0.826 1.402-0.826 0.744 0 1.216 0.82 1.221 0.828l0.132 0.239c0.12 0.234 0.361 0.722 0.846 1.738 0.843 1.769-0.301 2.641-0.792 3.014-0.032 0.025-0.063 0.047-0.088 0.068-0.062 0.045-0.211 0.176-0.253 0.43-0.057 0.335 0.093 0.731 0.441 1.169 1.388 1.933 4.579 4.215 5.503 4.585 0.184 0.073 0.374 0.112 0.563 0.112 0.709 0 1.39-0.503 2.026-1.497 0.289-0.468 0.626-0.716 0.974-0.716 0.192 0 0.325 0.073 0.334 0.080 0.021 0.011 2.13 1.175 2.872 1.731 0.19 0.143 0.292 0.399 0.287 0.723z"></path>
<path fill="#000" opacity="0.2" d="M24.034 20.247c0.123 0.15 0.187 0.365 0.184 0.624-0.009 0.527-0.333 1.365-1.223 1.989-0.669 0.512-1.543 0.773-2.599 0.773-1.099 0-2.338-0.295-3.488-0.835-0.296-0.135-0.6-0.285-0.909-0.449-1.455-0.774-3.017-1.851-4.359-3.074l9.668 9.669c2.57-1.055 4.757-2.853 6.293-5.129l-3.567-3.567z"></path>
<path fill="#000" opacity="0.1" d="M24.218 20.871c-0.009 0.527-0.333 1.365-1.223 1.989-0.669 0.512-1.543 0.773-2.599 0.773-1.099 0-2.338-0.295-3.488-0.835-0.296-0.135-0.6-0.285-0.909-0.449v-2.584c0.5 0.334 0.914 0.572 1.163 0.672 0.184 0.073 0.373 0.113 0.563 0.113 0.709 0 1.39-0.503 2.025-1.498 0.289-0.468 0.626-0.716 0.975-0.716 0.191 0 0.324 0.073 0.333 0.079 0.022 0.011 2.13 1.176 2.872 1.731 0.008 0.006 0.016 0.012 0.023 0.019l0.082 0.082c0.123 0.15 0.187 0.365 0.184 0.624z"></path>
<path fill="#fff" d="M24.034 20.247l-0.082-0.082c0.030 0.024 0.057 0.052 0.082 0.082z"></path>
</svg>
