<!-- Generated by IcoMoon.io -->
<svg version="1.1" xmlns="http://www.w3.org/2000/svg" width="32" height="32" viewBox="0 0 32 32">
<title>viber</title>
<path fill="#6f3faa" d="M32 16c0 8.837-7.163 16-16 16s-16-7.163-16-16c0-8.837 7.163-16 16-16s16 7.163 16 16z"></path>
<path fill="#512d84" d="M22.941 8.778c-3.895-0.941-7.796-2.041-11.79-0.643-2.586 0.97-2.586 3.771-2.478 6.141 0 0.646-0.754 1.508-0.431 2.263 0.646 2.155 1.185 4.31 3.448 5.387 0.323 0.215 0 0.646 0.216 0.97-0.108 0-0.323 0.108-0.323 0.215 0 0.516 0.232 1.306 0.078 1.816l6.875 6.872c7.068-1.126 12.592-6.879 13.37-14.058l-8.964-8.964z"></path>
<path fill="#fff" d="M24.464 11.245l-0.005-0.021c-0.427-1.728-2.355-3.583-4.125-3.969l-0.020-0.004c-2.863-0.546-5.766-0.546-8.628 0l-0.021 0.004c-1.769 0.386-3.697 2.24-4.125 3.969l-0.005 0.021c-0.529 2.414-0.529 4.861 0 7.275l0.005 0.021c0.41 1.654 2.194 3.424 3.898 3.91v1.929c0 0.698 0.851 1.041 1.335 0.537l1.955-2.032c0.424 0.024 0.848 0.037 1.272 0.037 1.441 0 2.883-0.136 4.314-0.409l0.020-0.004c1.77-0.386 3.697-2.24 4.125-3.969l0.005-0.021c0.529-2.414 0.529-4.861 0-7.275zM22.917 18.17c-0.285 1.128-1.749 2.529-2.912 2.788-1.522 0.29-3.056 0.413-4.589 0.371-0.030-0.001-0.060 0.011-0.081 0.033-0.218 0.223-1.427 1.465-1.427 1.465l-1.518 1.558c-0.111 0.116-0.306 0.037-0.306-0.123v-3.196c0-0.053-0.038-0.098-0.090-0.108-0-0-0.001-0-0.001-0-1.163-0.259-2.626-1.661-2.912-2.788-0.476-2.182-0.476-4.393 0-6.575 0.286-1.128 1.749-2.529 2.912-2.788 2.659-0.506 5.354-0.506 8.012 0 1.163 0.259 2.626 1.661 2.912 2.788 0.476 2.182 0.476 4.393-0 6.575z"></path>
<path fill="#fff" d="M18.529 19.645c-0.179-0.054-0.349-0.091-0.507-0.156-1.639-0.68-3.148-1.558-4.343-2.903-0.68-0.765-1.212-1.628-1.661-2.542-0.213-0.433-0.393-0.884-0.576-1.331-0.167-0.408 0.079-0.829 0.338-1.137 0.243-0.289 0.556-0.509 0.895-0.672 0.264-0.127 0.525-0.054 0.718 0.17 0.417 0.485 0.801 0.994 1.111 1.555 0.191 0.345 0.139 0.768-0.207 1.003-0.084 0.057-0.161 0.124-0.239 0.189-0.069 0.057-0.133 0.114-0.181 0.19-0.086 0.14-0.090 0.305-0.035 0.458 0.427 1.173 1.146 2.084 2.326 2.576 0.189 0.079 0.378 0.17 0.596 0.145 0.364-0.043 0.482-0.442 0.738-0.651 0.25-0.204 0.569-0.207 0.837-0.037s0.53 0.353 0.789 0.538c0.254 0.181 0.508 0.358 0.742 0.565 0.226 0.199 0.303 0.459 0.176 0.729-0.233 0.494-0.571 0.904-1.059 1.167-0.138 0.074-0.302 0.098-0.458 0.146-0.179-0.054 0.155-0.048 0 0z"></path>
<path fill="#fff" d="M16.004 10.339c2.144 0.060 3.906 1.483 4.283 3.603 0.064 0.361 0.087 0.73 0.116 1.097 0.012 0.154-0.075 0.301-0.242 0.303-0.172 0.002-0.249-0.142-0.26-0.296-0.022-0.305-0.037-0.612-0.079-0.914-0.222-1.597-1.496-2.919-3.086-3.203-0.239-0.043-0.484-0.054-0.727-0.079-0.153-0.016-0.354-0.025-0.388-0.216-0.028-0.16 0.106-0.287 0.258-0.295 0.041-0.002 0.083-0.001 0.124-0 2.144 0.060-0.041-0 0 0z"></path>
<path fill="#fff" d="M19.263 14.564c-0.004 0.027-0.005 0.090-0.021 0.149-0.057 0.215-0.383 0.242-0.458 0.025-0.022-0.064-0.026-0.138-0.026-0.207-0.001-0.454-0.099-0.908-0.329-1.303-0.235-0.406-0.595-0.748-1.017-0.954-0.255-0.125-0.531-0.203-0.811-0.249-0.122-0.020-0.246-0.032-0.369-0.050-0.149-0.021-0.228-0.116-0.221-0.262 0.007-0.137 0.107-0.236 0.257-0.228 0.492 0.028 0.967 0.134 1.405 0.366 0.89 0.471 1.398 1.215 1.546 2.208 0.007 0.045 0.017 0.090 0.021 0.135 0.008 0.111 0.014 0.223 0.022 0.37-0.004 0.027-0.009-0.147 0 0z"></path>
<path fill="#fff" d="M17.93 14.512c-0.179 0.003-0.275-0.096-0.294-0.261-0.013-0.115-0.023-0.231-0.050-0.342-0.054-0.22-0.171-0.423-0.356-0.558-0.087-0.064-0.186-0.11-0.29-0.14-0.132-0.038-0.268-0.028-0.399-0.060-0.143-0.035-0.221-0.15-0.199-0.284 0.020-0.122 0.139-0.217 0.272-0.207 0.831 0.060 1.426 0.49 1.51 1.469 0.006 0.069 0.013 0.142-0.002 0.208-0.026 0.113-0.11 0.17-0.192 0.175-0.179 0.003 0.082-0.005 0 0z"></path>
<path fill="#d1d1d1" d="M24.464 11.245l-0.005-0.021c-0.24-0.969-0.951-1.977-1.841-2.744l-1.204 1.067c0.716 0.57 1.329 1.36 1.503 2.049 0.476 2.182 0.476 4.393 0 6.575-0.285 1.128-1.749 2.529-2.912 2.788-1.522 0.29-3.056 0.413-4.589 0.371-0.030-0.001-0.060 0.011-0.081 0.033-0.218 0.223-1.427 1.465-1.427 1.465l-1.518 1.558c-0.111 0.116-0.306 0.037-0.306-0.123v-3.196c0-0.053-0.038-0.098-0.090-0.108-0 0-0.001-0-0.001-0-0.661-0.147-1.418-0.664-2.002-1.289l-1.189 1.054c0.743 0.808 1.701 1.461 2.636 1.728v1.929c0 0.698 0.851 1.041 1.335 0.537l1.955-2.032c0.424 0.024 0.848 0.037 1.272 0.037 1.441 0 2.883-0.136 4.314-0.409l0.020-0.004c1.77-0.386 3.697-2.24 4.125-3.969l0.005-0.021c0.529-2.414 0.529-4.861 0-7.275z"></path>
<path fill="#fff" d="M18.529 19.645c0.155-0.048-0.179-0.054 0 0v0z"></path>
<path fill="#d1d1d1" d="M19.87 17.604c-0.235-0.207-0.488-0.384-0.742-0.565-0.259-0.185-0.52-0.367-0.789-0.538s-0.588-0.167-0.837 0.037c-0.255 0.209-0.373 0.609-0.738 0.651-0.218 0.025-0.407-0.066-0.596-0.145-0.726-0.302-1.277-0.764-1.694-1.347l-0.885 0.784c0.030 0.035 0.059 0.071 0.089 0.105 1.195 1.345 2.704 2.223 4.343 2.903 0.158 0.066 0.329 0.102 0.507 0.156-0.179-0.054 0.155-0.048 0 0 0.155-0.048 0.32-0.072 0.458-0.146 0.488-0.262 0.826-0.673 1.059-1.167 0.127-0.27 0.049-0.53-0.176-0.729z"></path>
<path fill="#fff" d="M16.010 10.339c-0.002 0-0.004-0-0.005-0s0 0 0.005 0z"></path>
<path fill="#fff" d="M16.005 10.339c0.002 0 0.004 0 0.005 0 0.119 0.004 2.055 0.058-0.005-0z"></path>
<path fill="#d1d1d1" d="M19.080 11.615l-0.377 0.334c0.593 0.577 1.002 1.341 1.119 2.183 0.042 0.303 0.057 0.609 0.079 0.914 0.011 0.154 0.088 0.298 0.26 0.296 0.166-0.002 0.254-0.149 0.242-0.303-0.029-0.367-0.052-0.736-0.116-1.097-0.165-0.928-0.596-1.722-1.207-2.328z"></path>
<path fill="#d1d1d1" d="M19.22 14.059c-0.108-0.724-0.408-1.314-0.907-1.764l-0.376 0.333c0.195 0.173 0.363 0.376 0.492 0.599 0.229 0.395 0.328 0.849 0.329 1.303 0 0.069 0.003 0.143 0.026 0.207 0.075 0.217 0.402 0.19 0.458-0.025 0.016-0.059 0.018-0.122 0.021-0.149-0.004 0.027-0.009-0.147 0 0-0.009-0.147-0.014-0.259-0.022-0.37-0.003-0.045-0.014-0.090-0.021-0.135z"></path>
<path fill="#fff" d="M19.263 14.564c-0.009-0.147-0.004 0.027 0 0v0z"></path>
<path fill="#fff" d="M17.93 14.512c0.003-0 0.006-0.002 0.008-0.002-0.008 0-0.019 0-0.031 0.001 0.008 0 0.015 0.001 0.023 0.001z"></path>
<path fill="#fff" d="M17.93 14.512c-0.008 0-0.015-0.001-0.023-0.001-0.039 0.001-0.079 0.003 0.023 0.001z"></path>
<path fill="#fff" d="M17.938 14.51c-0.003 0-0.006 0.002-0.008 0.002 0.021-0.001 0.019-0.002 0.008-0.002z"></path>
<path fill="#d1d1d1" d="M17.551 12.97l-0.383 0.339c0.021 0.013 0.042 0.026 0.062 0.041 0.185 0.135 0.302 0.338 0.356 0.558 0.027 0.112 0.038 0.228 0.050 0.342 0.018 0.157 0.107 0.254 0.271 0.259 0.012-0 0.024-0.001 0.031-0.001 0.079-0.009 0.158-0.064 0.183-0.173 0.015-0.066 0.008-0.139 0.002-0.208-0.048-0.547-0.255-0.923-0.573-1.158z"></path>
</svg>
